# xmcd
#
# Track frame offsets: 
#        182
#        12890
#        25500
#        37422
#        49455
#        61572
#        73592
#        85597
#        96745
#        108415
#        123667
#        148995
#        164085
#        182940
#        197562
#        211317
#        235302
#
# Disc length: 3403 seconds
#
# Revision: 3
# Processed by: cddbd v1.5.2PL0 Copyright (c) Steve Scherf et al.
# Submitted via: ExactAudioCopy v0.99pb5
#
DISCID=fe0d4911
DTITLE=Tyrone Davis - Greatest Hits
DYEAR=1900
DGENRE=Soul
TTITLE0=Can I Change My Mind
TTITLE1=A Woman Needs To Be Loved
TTITLE2=Is It Something You've Got
TTITLE3=Turn Back The Hands Of Time
TTITLE4=I Keep Coming Back
TTITLE5=I'll Be Right Here
TTITLE6=Let Me Back In
TTITLE7=Could I Forget You
TTITLE8=One-Way Ticket
TTITLE9=You Keep Me Holding On 
TTITLE10=I Had It All The Time
TTITLE11=Without You In My Life
TTITLE12=There It Is
TTITLE13=I Wish It Were Me
TTITLE14=Homewreckers
TTITLE15=It's So Good (To Be Home With You)
TTITLE16=Turning Point
EXTD=
EXTT0=
EXTT1=
EXTT2=
EXTT3=
EXTT4=
EXTT5=
EXTT6=
EXTT7=
EXTT8=
EXTT9=
EXTT10=
EXTT11=
EXTT12=
EXTT13=
EXTT14=
EXTT15=
EXTT16=
PLAYORDER=
